<?xml version="1.0" encoding="UTF-8"?><svg id="a" xmlns="http://www.w3.org/2000/svg" viewBox="0 0 294.8 502.5"><defs><style>.b{fill:#ff3f55;}.c{fill:#8a0023;}</style></defs><path class="c" d="M234.8,10.9L11.2,234.5c-4.4,4.4-6.8,10.8-6.8,16.8s2.4,12,6.8,16.8l223.6,223.6c9.2,9.2,24,9.2,33.2,0l16.4-16.4c9.2-9.2,9.2-24,0-33.2L94,251.7,284.8,60.9c9.2-9.2,9.2-24,0-33.2l-16.4-16.4c-9.2-9.6-24.4-9.6-33.6-.4Z"/><path class="b" d="M29.6,244.1c-2,2-3.2,4.8-2.8,7.6,0,2.8,.8,5.2,2.8,7.6l183.2,183.2,20,20,11.2,11.2c4,4,10.4,4,14.4,0l7.6-7.6c4-4,4-10.4,0-14.4L83.2,268.9l-16.8-16.8,16.8-16.8L266,52.5c4-4,4-10.4,0-14.4l-7.6-7.6c-4-4-10.4-4-14.4,0L29.6,244.1Z"/><path d="M251.2,502.5c-7.2,0-14.4-2.8-19.6-8L8,270.9c-5.2-5.2-8-12-8-19.6,0-7.2,2.8-14.4,8-19.6L231.6,8.1l2.8,2.8-2.8-2.8c10.8-10.8,28.4-10.8,38.8,0l16.4,16.4c5.2,5.2,8,12,8,19.6,0,7.2-2.8,14.4-8,19.6L99.2,251.3l187.6,187.6c5.2,5.2,8,12,8,19.6,0,7.2-2.8,14.4-8,19.6l-16.4,16.4c-4.8,5.2-11.6,8-19.2,8ZM237.6,13.7L14,237.3c-3.6,3.6-5.6,8.8-5.6,14s2,10.4,5.6,14l223.6,223.6c3.6,3.6,8.4,5.6,14,5.6s10-2,14-5.6l16.4-16.4c3.6-3.6,5.6-8.4,5.6-14s-2-10-5.6-14L91.6,254.1c-1.6-1.6-1.6-4,0-5.6L282.4,57.7c3.6-3.6,5.6-8.4,5.6-14,0-5.2-2-10-5.6-14l-16.4-16.4c-8.4-7.2-20.8-7.2-28.4,.4h0Z"/><path d="M251.2,480.1c-4,0-7.2-1.6-10-4L26.8,261.7c-2.8-2.8-4.4-6.4-4-10.4,0-3.6,1.2-7.6,4-10L214,54.1c1.6-1.6,4-1.6,5.6,0s1.6,4,0,5.6L32.4,246.9c-1.2,1.2-2,2.8-1.6,4.4,0,2,.4,3.6,1.6,4.8l214.4,214.4c2.4,2.4,6.4,2.4,8.8,0l7.6-7.6c2.4-2.4,2.4-6.4,0-8.8L63.6,254.5c-.8-.8-1.2-1.6-1.2-2.8s.4-2,1.2-2.8L263.6,48.9c1.2-1.2,2-2.8,2-4.4s-.8-3.2-2-4.4l-7.6-7.6c-2.4-2.4-6.4-2.4-8.8,0l-4,4c-1.6,1.6-4,1.6-5.6,0s-1.6-4,0-5.6l4-4c5.6-5.6,14.4-5.6,20,0l7.6,7.6c2.8,2.8,4,6.4,4,10,0,4-1.6,7.2-4,10L72,251.3l196.8,196.8c5.6,5.6,5.6,14.4,0,20l-7.6,7.6c-2.4,2.8-6,4.4-10,4.4Z"/></svg>