<?xml version="1.0" encoding="UTF-8"?><svg id="a" xmlns="http://www.w3.org/2000/svg" viewBox="0 0 294.8 502.5"><defs><style>.b{fill:#ff3f55;}.c{fill:#8a0023;}</style></defs><path d="M251.2,502.5c-7.2,0-14.4-2.8-19.6-8L8,270.9c-5.2-5.2-8-12-8-19.6,0-7.2,2.8-14.4,8-19.6L231.6,8.1l2.8,2.8-2.8-2.8c10.8-10.8,28.4-10.8,38.8,0l16.4,16.4c5.2,5.2,8,12,8,19.6,0,7.2-2.8,14.4-8,19.6L99.2,251.3l187.6,187.6c5.2,5.2,8,12,8,19.6,0,7.2-2.8,14.4-8,19.6l-16.4,16.4c-4.8,5.2-11.6,8-19.2,8h0ZM237.6,13.7L14,237.3c-3.6,3.6-5.6,8.8-5.6,14s2,10.4,5.6,14l223.6,223.6c3.6,3.6,8.4,5.6,14,5.6s10-2,14-5.6l16.4-16.4c3.6-3.6,5.6-8.4,5.6-14s-2-10-5.6-14L91.6,254.1c-1.55-1.55-1.55-4.05,0-5.6L282.4,57.7c3.6-3.6,5.6-8.4,5.6-14,0-5.2-2-10-5.6-14l-16.4-16.4c-8.4-7.2-20.8-7.2-28.4,.4h0Z"/><path class="c" d="M234.8,10.9L11.2,234.5c-4.4,4.4-6.8,10.8-6.8,16.8s2.4,12,6.8,16.8l219.1,219.1c18.89,19.28,30.55,11.65,42.2,0l7.4-7.4c11.65-11.65,18.71-23.38,0-42.2L97.39,255.09c-1.87-1.87-1.87-4.9,0-6.77L280.3,65.4c14.5-15.17,15.57-25.24,0-42.2l-11.9-11.9c-9.2-9.6-24.4-9.6-33.6-.4h0Z"/><path d="M251.2,480.1c-4,0-7.2-1.6-10-4h0L26.8,261.7c-2.8-2.8-4.4-6.4-4-10.4,0-3.6,1.2-7.6,4-10L213.79,54.31c1.72-1.72,4.64-1.73,6.15,.18,1.25,1.58,1.13,3.74-.34,5.21L32.4,246.9c-1.2,1.2-2,2.8-1.6,4.4,0,2,.4,3.6,1.6,4.8l214.31,214.31c2.47,2.47,6.51,2.47,8.98,0l7.42-7.42c2.47-2.47,2.47-6.51,0-8.98L63.6,254.5c-.8-.8-1.2-1.6-1.2-2.8s.4-2,1.2-2.8L263.6,48.9c1.2-1.2,2-2.8,2-4.4s-.8-3.2-2-4.4l-7.51-7.51c-2.47-2.47-6.51-2.47-8.98,0l-3.7,3.7c-1.72,1.72-4.64,1.73-6.15-.18-1.25-1.58-1.13-3.74,.34-5.21l3.91-3.91c5.57-5.57,14.61-5.57,20.18,0l7.51,7.51c2.8,2.8,4,6.4,4,10,0,4-1.6,7.2-4,10h0L72.09,251.21c-.05,.05-.05,.13,0,.18l196.62,196.62c5.57,5.57,5.57,14.61,0,20.18l-7.51,7.51c-2.4,2.8-6,4.4-10,4.4h0Z"/><path class="b" d="M29.6,244.1c-2,2-3.2,4.8-2.8,7.6,0,2.75,.77,5.11,2.69,7.47,.07,.09,.15,.17,.23,.25l183.08,183.08,20,20,9.81,9.81c4.75,4.75,12.44,4.75,17.19,0l4.81-4.81c4.75-4.75,4.75-12.44,0-17.19L83.2,268.9l-14.85-14.85c-1.07-1.07-1.07-2.82,0-3.89l14.85-14.85L264.61,53.89c4.75-4.75,4.75-12.44,0-17.19l-6.21-6.21c-4-4-10.4-4-14.4,0L29.6,244.1Z"/></svg>